# Blender 4.5.5 LTS
# www.blender.org
o hmd
v -0.098628 -0.055466 0.085632
v -0.098628 0.055466 0.085632
v 0.098628 -0.055466 0.085632
v 0.098628 0.055466 0.085632
v -0.098628 0.000000 0.127830
v 0.098628 0.000000 0.127830
v 0.000000 -0.055466 0.110798
v 0.000000 0.055466 0.110798
v 0.000000 0.000000 0.152996
v -0.098628 0.000000 0.075043
v -0.098628 -0.055466 0.075043
v 0.000000 -0.055466 0.075043
v 0.000000 0.055466 0.075043
v 0.098628 0.055466 0.075043
v 0.098628 0.000000 0.075043
v 0.098628 -0.055466 0.075043
v -0.098628 0.055466 0.075043
vn -1.0000 -0.0000 -0.0000
vn 1.0000 -0.0000 -0.0000
vn -0.1990 0.5934 0.7799
vn -0.0000 -1.0000 -0.0000
vn -0.0000 1.0000 -0.0000
vn -0.1990 -0.5934 0.7799
vn 0.1990 -0.5934 0.7799
vn 0.1990 0.5934 0.7799
vn -0.0000 -0.0000 -1.0000
vt 0.500000 0.000000
vt 0.625000 0.000000
vt 0.625000 0.250000
vt 0.500000 0.250000
vt 0.500000 0.500000
vt 0.625000 0.500000
vt 0.625000 0.750000
vt 0.500000 0.750000
vt 0.500000 0.875000
vt 0.625000 0.875000
vt 0.625000 1.000000
vt 0.500000 1.000000
vt 0.250000 0.500000
vt 0.375000 0.500000
vt 0.375000 0.750000
vt 0.250000 0.750000
vt 0.750000 0.500000
vt 0.875000 0.500000
vt 0.875000 0.750000
vt 0.750000 0.750000
vt 0.375000 0.875000
vt 0.375000 1.000000
vt 0.375000 0.000000
vt 0.375000 0.250000
vt 0.125000 0.500000
vt 0.125000 0.750000
vt 0.375000 0.375000
vt 0.625000 0.375000
s 0
f 5/1/1 2/2/1 17/3/1 10/4/1
f 15/5/2 14/6/2 4/7/2 6/8/2
f 9/9/3 8/10/3 2/11/3 5/12/3
f 12/13/4 16/14/4 3/15/4 7/16/4
f 13/17/5 17/18/5 2/19/5 8/20/5
f 7/21/6 9/9/6 5/12/6 1/22/6
f 16/14/2 15/5/2 6/8/2 3/15/2
f 1/23/1 5/1/1 10/4/1 11/24/1
f 3/15/7 6/8/7 9/9/7 7/21/7
f 14/6/5 13/17/5 8/20/5 4/7/5
f 11/25/4 12/13/4 7/16/4 1/26/4
f 6/8/8 4/7/8 8/10/8 9/9/8
f 15/5/9 16/14/9 12/27/9 11/24/9 10/4/9 17/3/9 13/28/9 14/6/9
